<svg id="Layer_1" data-name="Layer 1" xmlns="http://www.w3.org/2000/svg" xmlns:xlink="http://www.w3.org/1999/xlink" viewBox="0 0 85.08 45.23"><defs><style>.cls-1{fill:url(#linear-gradient);}.cls-2{fill:url(#linear-gradient-2);}.cls-3{fill:url(#linear-gradient-3);}.cls-4{fill:url(#linear-gradient-4);}</style><linearGradient id="linear-gradient" x1="103.48" y1="161.77" x2="103.48" y2="119.38" gradientUnits="userSpaceOnUse"><stop offset="0" stop-color="#cb4327"/><stop offset="0.88" stop-color="#686868"/></linearGradient><linearGradient id="linear-gradient-2" x1="89.4" y1="110.63" x2="112.38" y2="133.6" gradientUnits="userSpaceOnUse"><stop offset="0.31" stop-color="#686868"/><stop offset="1" stop-color="#cb4327"/></linearGradient><linearGradient id="linear-gradient-3" x1="148.58" y1="161.77" x2="148.58" y2="119.38" xlink:href="#linear-gradient"/><linearGradient id="linear-gradient-4" x1="134.5" y1="110.63" x2="157.47" y2="133.6" xlink:href="#linear-gradient-2"/></defs><title>logo</title><path class="cls-1" d="M108.28,124.45H83.49s28.61-11.4,38,0a15.18,15.18,0,0,1,1,5.63c0,5.63-2.68,11.66-9.58,13.6l10.51,18.09h-8.77l-10.32-17.49H92.6a1,1,0,0,0-1.14,1.14v16.35H83.55V143.88c0-5.09,2.15-7.17,7.1-7.17h17.63c4.48,0,6.29-3.08,6.29-6.3S112.63,124.45,108.28,124.45Z" transform="translate(-83.49 -116.54)"/><path class="cls-2" d="M83.49,116.54H108c7.39,0,11.71,3.32,13.52,7.91-9.43-11.4-38,0-38,0Z" transform="translate(-83.49 -116.54)"/><path class="cls-3" d="M153.37,124.45H128.58s28.61-11.4,38,0a15.18,15.18,0,0,1,1,5.63c0,5.63-2.68,11.66-9.58,13.6l10.51,18.09H159.8l-10.32-17.49H137.69a1,1,0,0,0-1.14,1.14v16.35h-7.91V143.88c0-5.09,2.15-7.17,7.1-7.17h17.63c4.48,0,6.29-3.08,6.29-6.3S157.72,124.45,153.37,124.45Z" transform="translate(-83.49 -116.54)"/><path class="cls-4" d="M128.58,116.54H153.1c7.39,0,11.71,3.32,13.52,7.91-9.43-11.4-38,0-38,0Z" transform="translate(-83.49 -116.54)"/></svg>